<svg width="184" height="20" viewBox="0 0 184 20" fill="none" xmlns="http://www.w3.org/2000/svg">
<path fill-rule="evenodd" clip-rule="evenodd" d="M14 0H0V20H14L16 18V2L14 0ZM12 15.2L11.2 16H4V4H11.2L12 4.8V15.2Z" fill="#09A3BC"/>
<path fill-rule="evenodd" clip-rule="evenodd" d="M22 0L20 2V20H34L36 18V0H22ZM32 15.2L31.2 16H24V4.8L24.8 4H32V15.2Z" fill="#09A3BC"/>
<path d="M54.02 20H40V1.98L41.98 0H54.02L56 1.98V8H52V4H44V16H52V12H56V18.02L54.02 20Z" fill="#09A3BC"/>
<path fill-rule="evenodd" clip-rule="evenodd" d="M60 20V2L62 0H64V16H71.2L72 15.2V2L74 0H76V18L74 20H60Z" fill="#09A3BC"/>
<path fill-rule="evenodd" clip-rule="evenodd" d="M88 0H84V4H88V0ZM88 16H84V20H88V16ZM84 8H88V12H84V8Z" fill="#09A3BC"/>
<path fill-rule="evenodd" clip-rule="evenodd" d="M114 0L112 2V20H126L128 18V0H114ZM124 15.2L123.2 16H116V4.8L116.8 4H124V15.2Z" fill="#033A42"/>
<path d="M164.02 20H150V1.98L151.98 0H164.02L166 1.98V8H162V4H154V16H162V12H166V18.02L164.02 20Z" fill="#033A42"/>
<path d="M108 4V0H96V20H100V12H106V8H100V4H108Z" fill="#033A42"/>
<path d="M184 4V0H170V20H184V16H174V12H180V8H174V4H184Z" fill="#033A42"/>
<path d="M148 20L143.04 13.8L146 10.82V3.18L142.82 0H132V20H136V14H137.5L142 20H148ZM136 4H141.18L142 4.82V9.16L141.18 9.98H136V4Z" fill="#033A42"/>
</svg>
